<?xml version="1.0" standalone="no"?><!DOCTYPE svg PUBLIC "-//W3C//DTD SVG 1.1//EN" "http://www.w3.org/Graphics/SVG/1.1/DTD/svg11.dtd"><svg t="1627032106140" class="icon" viewBox="0 0 1024 1024" version="1.1" xmlns="http://www.w3.org/2000/svg" p-id="2235" xmlns:xlink="http://www.w3.org/1999/xlink" width="200" height="200"><defs><style type="text/css">@font-face { font-family: feedback-iconfont; src: url("//at.alicdn.com/t/font_1031158_1uhr8ri0pk5.eot?#iefix") format("embedded-opentype"), url("//at.alicdn.com/t/font_1031158_1uhr8ri0pk5.woff2") format("woff2"), url("//at.alicdn.com/t/font_1031158_1uhr8ri0pk5.woff") format("woff"), url("//at.alicdn.com/t/font_1031158_1uhr8ri0pk5.ttf") format("truetype"), url("//at.alicdn.com/t/font_1031158_1uhr8ri0pk5.svg#iconfont") format("svg"); }
</style></defs><path d="M756.821333 256C691.541333 203.264 601.472 170.666667 512 170.666667a341.333333 341.333333 0 1 0 341.333333 341.333333 42.666667 42.666667 0 0 1 85.333334 0c0 235.648-191.018667 426.666667-426.666667 426.666667S85.333333 747.648 85.333333 512 276.352 85.333333 512 85.333333c108.757333 0 217.898667 39.082667 298.666667 104.490667V128a42.666667 42.666667 0 0 1 85.333333 0v170.666667a42.666667 42.666667 0 0 1-42.666667 42.666666h-170.666666a42.666667 42.666667 0 0 1 0-85.333333h74.154666z" p-id="2236" fill="#e6e6e6"></path></svg>