<?xml version="1.0" standalone="no"?><!DOCTYPE svg PUBLIC "-//W3C//DTD SVG 1.1//EN" "http://www.w3.org/Graphics/SVG/1.1/DTD/svg11.dtd"><svg t="1627285086813" class="icon" viewBox="0 0 1024 1024" version="1.1" xmlns="http://www.w3.org/2000/svg" p-id="3152" xmlns:xlink="http://www.w3.org/1999/xlink" width="200" height="200"><defs><style type="text/css">@font-face { font-family: feedback-iconfont; src: url("//at.alicdn.com/t/font_1031158_1uhr8ri0pk5.eot?#iefix") format("embedded-opentype"), url("//at.alicdn.com/t/font_1031158_1uhr8ri0pk5.woff2") format("woff2"), url("//at.alicdn.com/t/font_1031158_1uhr8ri0pk5.woff") format("woff"), url("//at.alicdn.com/t/font_1031158_1uhr8ri0pk5.ttf") format("truetype"), url("//at.alicdn.com/t/font_1031158_1uhr8ri0pk5.svg#iconfont") format("svg"); }
</style></defs><path d="M568.25 962l56.25-225h137.531c54.056-59.569 87.469-138.094 87.469-225 0-153.563-102.825-287.156-243.225-328.725-22.95-6.75-38.025-28.688-38.025-52.65v0c0-36.394 34.706-64.406 69.638-54.169 187.2 55.125 324.113 230.738 324.113 435.544 0 227.081-175.163 419.231-393.75 450zM62 512c0-227.025 175.163-419.231 393.75-450l-56.25 225h-137.531c-54.056 59.569-87.469 138.094-87.469 225 0 153.563 102.825 287.156 243.225 328.669 22.95 6.806 38.025 28.744 38.025 52.706v0c0 36.394-34.706 64.406-69.638 54.169-187.2-55.125-324.113-230.738-324.113-435.544z" p-id="3153" fill="#2c2c2c"></path></svg>