<?xml version="1.0" standalone="no"?><!DOCTYPE svg PUBLIC "-//W3C//DTD SVG 1.1//EN" "http://www.w3.org/Graphics/SVG/1.1/DTD/svg11.dtd"><svg t="1627285179458" class="icon" viewBox="0 0 1024 1024" version="1.1" xmlns="http://www.w3.org/2000/svg" p-id="3401" xmlns:xlink="http://www.w3.org/1999/xlink" width="200" height="200"><defs><style type="text/css">@font-face { font-family: feedback-iconfont; src: url("//at.alicdn.com/t/font_1031158_1uhr8ri0pk5.eot?#iefix") format("embedded-opentype"), url("//at.alicdn.com/t/font_1031158_1uhr8ri0pk5.woff2") format("woff2"), url("//at.alicdn.com/t/font_1031158_1uhr8ri0pk5.woff") format("woff"), url("//at.alicdn.com/t/font_1031158_1uhr8ri0pk5.ttf") format("truetype"), url("//at.alicdn.com/t/font_1031158_1uhr8ri0pk5.svg#iconfont") format("svg"); }
</style></defs><path d="M512 960c-247.424 0-448-200.576-448-448s200.576-448 448-448 448 200.576 448 448S759.424 960 512 960zM512 176C326.464 176 176 326.464 176 512S326.464 848 512 848s336-150.464 336-336S697.536 176 512 176zM707.968 568 316.032 568C300.544 568 288 555.456 288 539.968L288 484.032c0-15.488 12.544-28.032 28.032-28.032l392 0c15.488 0 28.032 12.544 28.032 28.032l0 56C736 555.456 723.456 568 707.968 568z" p-id="3402" fill="#e6e6e6"></path></svg>